<svg width="90" height="88" viewBox="0 0 90 88" fill="none" xmlns="http://www.w3.org/2000/svg">
<path d="M86.4922 86.283L90.0001 87.2311V87.4207H71.6075V87.2311L77.6751 86.283L69.8061 66.3735H41.5535L34.1586 86.283L43.7341 87.2311V87.4207H28.5649V87.2311L33.3053 86.283L54.8266 28.8299L51.5083 21.0557H59.5669L86.4922 86.283ZM41.838 65.6151H69.5217L55.3006 29.5883L41.838 65.6151Z" fill="black"/>
<path d="M0 66.3651V66.1755L5.11959 65.2274V1.13769L0 0.189618V0H26.1668C38.4917 0 47.5932 7.11055 47.5932 18.1082C47.5932 29.1058 38.4917 36.5008 25.4083 36.5008C31.1916 36.5008 35.6475 39.819 38.7762 45.5075L47.4036 61.2455C49.205 64.4689 52.8234 65.6738 57.2794 65.6738V66.3651H40.7671L29.2954 44.9386C26.072 38.9658 22.7537 36.5956 15.8328 36.5956H12.799V65.2274L17.729 66.1755V66.3651H0ZM12.799 35.9319H24.081C33.6566 35.9319 39.345 27.1149 39.345 18.1082C39.345 9.1963 33.6566 0.663653 24.081 0.663653H12.799V35.9319Z" fill="black"/>
</svg>
