<svg xmlns="http://www.w3.org/2000/svg" version="1.1" xmlns:xlink="http://www.w3.org/1999/xlink" xmlns:svgjs="http://svgjs.dev/svgjs" width="1000" height="1000"><g clip-path="url(#SvgjsClipPath1237)"><rect width="1000" height="1000" fill="#ffffff"></rect><g transform="matrix(8.88888888888889,0,0,8.88888888888889,100,100)"><svg xmlns="http://www.w3.org/2000/svg" version="1.1" xmlns:xlink="http://www.w3.org/1999/xlink" xmlns:svgjs="http://svgjs.dev/svgjs" width="90" height="90"><svg width="90" height="90" viewBox="0 0 90 90" fill="none" xmlns="http://www.w3.org/2000/svg">
<path d="M86.4922 87.283L90.0001 88.2311V88.4207H71.6075V88.2311L77.6751 87.283L69.8061 67.3735H41.5535L34.1586 87.283L43.7341 88.2311V88.4207H28.5649V88.2311L33.3053 87.283L54.8266 29.8299L51.5083 22.0557H59.5669L86.4922 87.283ZM41.838 66.6151H69.5217L55.3006 30.5883L41.838 66.6151Z" fill="black"></path>
<path d="M0 67.3651V67.1755L5.11959 66.2274V2.13769L0 1.18962V1H26.1668C38.4917 1 47.5932 8.11055 47.5932 19.1082C47.5932 30.1058 38.4917 37.5008 25.4083 37.5008C31.1916 37.5008 35.6475 40.819 38.7762 46.5075L47.4036 62.2455C49.205 65.4689 52.8234 66.6738 57.2794 66.6738V67.3651H40.7671L29.2954 45.9386C26.072 39.9658 22.7537 37.5956 15.8328 37.5956H12.799V66.2274L17.729 67.1755V67.3651H0ZM12.799 36.9319H24.081C33.6566 36.9319 39.345 28.1149 39.345 19.1082C39.345 10.1963 33.6566 1.66365 24.081 1.66365H12.799V36.9319Z" fill="black"></path>
</svg></svg></g></g><defs><clipPath id="SvgjsClipPath1237"><rect width="1000" height="1000" x="0" y="0" rx="250" ry="250"></rect></clipPath></defs></svg>